<?xml version="1.0" encoding="utf-8"?>
<!-- Generator: Adobe Illustrator 16.0.3, SVG Export Plug-In . SVG Version: 6.00 Build 0)  -->
<!DOCTYPE svg PUBLIC "-//W3C//DTD SVG 1.1//EN" "http://www.w3.org/Graphics/SVG/1.1/DTD/svg11.dtd">
<svg version="1.1" id="Capa_1" xmlns="http://www.w3.org/2000/svg" xmlns:xlink="http://www.w3.org/1999/xlink" x="0px" y="0px"
	 width="75px" height="75px" viewBox="0 0 75 75" enable-background="new 0 0 75 75" xml:space="preserve">
<g transform="translate(0.000000,75.000000) scale(0.100000,-0.100000)">
	<path d="M117.998,648.999C102.002,640,100,616.001,100,372.002c0-195,2.998-271.006,12.002-280c15.996-16.006,170-16.006,185.996,0
		c17.002,17.002,17.002,538.999,0,555.996C282.998,662.998,142.002,663.999,117.998,648.999z"/>
	<path d="M17.998,607.998C7.998,591.001,5,527.998,5,375c1.001-230.996,7.002-265,50-265h25v260v260H55
		C40,630,26.001,621.001,17.998,607.998z"/>
	<path d="M730,595l-15,30l-192.998,2.998L330,630V110l192.002,2.002L715,115l15,30C752.002,189.004,752.002,551.001,730,595z
		 M380,550h260v-60H380V550z M420,177.5c-38.691,0-38.691,60,0,60S458.691,177.5,420,177.5z M421.25,273.75
		c-38.691,0-38.691,60,0,60S459.941,273.75,421.25,273.75z M421.25,370c-38.691,0-38.691,60,0,60S459.941,370,421.25,370z
		 M516.25,423.75c38.691,0,38.691-60,0-60S477.559,423.75,516.25,423.75z M518.75,331.25c38.691,0,38.691-60,0-60
		S480.059,331.25,518.75,331.25z M522.5,177.5c-38.691,0-38.691,60,0,60S561.191,177.5,522.5,177.5z M607.5,423.75
		c38.691,0,38.691-60,0-60S568.809,423.75,607.5,423.75z M610,335c38.691,0,38.691-60,0-60S571.309,335,610,335z M611.25,177.5
		c-38.691,0-38.691,60,0,60S649.941,177.5,611.25,177.5z"/>
</g>
</svg>
