<?xml version="1.0" encoding="utf-8"?>
<!-- Generator: Adobe Illustrator 16.0.3, SVG Export Plug-In . SVG Version: 6.00 Build 0)  -->
<!DOCTYPE svg PUBLIC "-//W3C//DTD SVG 1.1//EN" "http://www.w3.org/Graphics/SVG/1.1/DTD/svg11.dtd">
<svg version="1.1" id="Capa_1" xmlns="http://www.w3.org/2000/svg" xmlns:xlink="http://www.w3.org/1999/xlink" x="0px" y="0px"
	 width="75px" height="75px" viewBox="0 0 75 75" enable-background="new 0 0 75 75" xml:space="preserve">
<g transform="translate(0.000000,75.000000) scale(0.100000,-0.100000)">
	<path d="M500,527.998C400.996,477.002,371.001,360,435,265.996L459.004,230H291.001L315,265.996
		c62.998,94.004,33.999,211.006-65,262.002c-52.002,26.001-102.998,28.003-145,6.001C33.999,497.002,0,442.998,0,365
		c0-52.002,10-77.002,48.999-117.998C100,192.002,108.999,190,375,190c265.996,0,275,2.002,325.996,57.002
		C740,287.998,750,312.998,750,367.002C750,502.002,617.002,587.998,500,527.998z M116.001,299.004
		c-28.999,25-38.003,58.994-26.001,96.997c19.487,58.467,76.997,79.409,125.747,53.472c5.234-2.378,9.878-5.4,14.028-8.867
		c3.838-2.9,7.598-6.05,11.226-9.604C323.999,347.998,205,222.002,116.001,299.004z M660.996,339.004
		C632.998,265,529.004,252.998,495,320.996c-22.998,43.008-17.998,77.002,14.004,110.005C542.002,463.999,590.996,470,627.002,445
		C655,425,672.998,370,660.996,339.004z"/>
</g>
<path d="M17.584,30.25c-10.318,0-10.318,16,0,16S27.901,30.25,17.584,30.25z"/>
<path d="M57.334,29.833c-10.318,0-10.318,16,0,16S67.652,29.833,57.334,29.833z"/>
</svg>
