<?xml version="1.0" encoding="utf-8"?>
<!-- Generator: Adobe Illustrator 16.0.3, SVG Export Plug-In . SVG Version: 6.00 Build 0)  -->
<!DOCTYPE svg PUBLIC "-//W3C//DTD SVG 1.1//EN" "http://www.w3.org/Graphics/SVG/1.1/DTD/svg11.dtd">
<svg version="1.1" id="Capa_1" xmlns="http://www.w3.org/2000/svg" xmlns:xlink="http://www.w3.org/1999/xlink" x="0px" y="0px"
	 width="75px" height="75px" viewBox="0 0 75 75" enable-background="new 0 0 75 75" xml:space="preserve">
<g transform="translate(0.000000,75.000000) scale(0.100000,-0.100000)">
	<path d="M306.001,698.999c-30-35-35-88.999-10-110c33.999-27.998,71.997,32.002,40,63.999C322.002,666.001,322.002,668.999,335,680
		c21.001,17.998,64.004,15,82.998-3.999C429.004,666.001,430,660,422.002,660C415,660,410,646.001,410,625c0-18.999,5-35,10-35
		c14.004,0,12.002-27.002-2.002-36.001c-7.002-5-25-6.997-40-6.001c-18.999,2.002-30.996-2.998-35-13.999
		c-15.996-41.997,67.002-41.001,105,2.002C465,556.001,470,572.998,470,618.999c0,50-4.004,62.002-25.996,85
		C404.004,742.998,341.001,741.001,306.001,698.999z"/>
	<path d="M52.998,535C13.999,517.998,0,492.998,0,441.001C0,402.002,2.002,400,30,400s30,2.998,30,35c0,21.001-5,35-12.002,35
		c-15.996,1.001,30,40,46.001,40c6.001,0,22.002-7.002,35-16.001c21.001-15,21.001-17.998,7.002-26.001
		C115,456.001,115,413.999,137.998,401.001c16.001-8.999,16.001-11.001,0-27.002c-10-9.995-30-18.003-45-18.999
		c-16.997,0-28.999-5.996-30.996-15.996c-8.003-41.006,83.999-27.002,111.997,15.996C182.998,369.004,190,401.001,190,428.999
		c0,42.002-5,56.001-27.002,80C128.999,545,95,552.998,52.998,535z"/>
	<path d="M684.004,536.001c-11.084,4.546-18.291,7.817-23.984,9.844c-0.957,0.132-1.895,0.376-2.842,0.625
		c-1.924,0.029-3.848,0.068-5.771,0.093c-2.852-0.088-5.703-0.259-8.535-0.684c-0.879-0.132-1.689-0.093-2.461,0.02
		c-0.566-0.039-1.143,0.02-1.729,0.083c-0.801-0.244-1.592-0.537-2.354-0.562c-5.82-2.158-13.193-5.532-24.326-10.42
		C574.004,518.999,545,461.001,555,422.998c4.004-18.999,10.996-23.999,32.998-20.996C619.004,405,630,441.001,609.004,466.001
		c-17.002,20,1.992,36.997,40.996,36.997c37.998,0,59.004-17.998,42.002-35c-17.998-17.998-15-55.996,5-66.997
		c17.002-8.999,17.002-10,0-28.999C685.996,360,670.996,354.004,655,357.998c-29.004,5-47.002-23.994-24.004-38.994
		c22.002-15,62.002-1.006,92.002,31.992C744.004,373.999,750,390,750,427.998C750,485,730,517.002,684.004,536.001z"/>
	<path d="M367.002,284.004C352.998,269.004,361.001,250,380,250c42.998,0,115.996-57.998,97.002-77.002
		c-2.998-2.002-7.998,5-12.002,16.006c-12.002,37.998-105,70-105,36.992c0-7.998,7.998-16.992,17.998-18.994
		c16.006-4.004,16.006-5,0-6.006c-10,0-17.998-5.996-17.998-11.992C360,177.998,414.004,120,424.004,120
		c12.998,0,5,45-11.006,62.002c-15.996,17.998-15.996,17.998,0,12.002c9.004-3.008,21.006-20,25-37.002
		c10-39.004,29.004-46.006,41.006-15l10,22.998v-22.002C490,107.002,520,114.004,520,150c0,40.996-22.998,84.004-57.002,107.998
		C432.002,280,377.998,294.004,367.002,284.004z"/>
	<path d="M262.998,185.996c-20.996-45-5.996-82.998,50-130.996C362.002,12.998,415,7.002,445,40
		c17.998,20,17.998,20.996-7.998,47.002c-25,25-27.002,25.996-45,10c-25-22.998-48.003-21.006-66.001,5
		C312.002,120.996,312.002,125.996,325,140c20,22.002,18.999,42.998-2.998,62.998C295,227.998,282.002,224.004,262.998,185.996z"/>
</g>
<path d="M27.253,47.543c-1.869-1.914-3.738-3.826-5.608-5.739c-1.807-1.849-4.605,1.016-2.799,2.864
	c1.87,1.912,3.739,3.825,5.608,5.738C26.26,52.256,29.059,49.393,27.253,47.543z"/>
<path d="M36.167,29.5v11.334c0,2.579,4,2.579,4,0V29.5C40.167,26.92,36.167,26.92,36.167,29.5z"/>
<path d="M56.919,42.42l-4.5,4.5c-1.825,1.825,1.003,4.653,2.828,2.828l4.5-4.5C61.572,43.423,58.744,40.595,56.919,42.42z"/>
</svg>
